<?xml version="1.0" encoding="utf-8"?>
<!-- Generator: Adobe Illustrator 22.0.0, SVG Export Plug-In . SVG Version: 6.00 Build 0)  -->
<svg version="1.1" id="katman_1" xmlns="http://www.w3.org/2000/svg" xmlns:xlink="http://www.w3.org/1999/xlink" x="0px" y="0px"
	 viewBox="0 0 267.7 39.7" style="enable-background:new 0 0 267.7 39.7;" xml:space="preserve">
<style type="text/css">
	.st0{fill:#FFFFFF;}
</style>
<g>
	<path class="st0" d="M163.8,9.9h5.7v19.8h-9.7h0L148,14.9l0.1,14.9h-5.8h0V9.9h0v0h9.6l12,15L163.8,9.9L163.8,9.9L163.8,9.9z
		 M193.7,22.3L193.7,22.3c0,1.4-0.3,2-1.1,2.3c-0.1,0-0.2,0.1-0.3,0.1c0,0-0.1,0-0.1,0c-0.7,0.2-1.7,0.3-5.2,0.3h-0.6
		c-1.1,0-2,0-2.8-0.1c-0.6,0-1.1-0.1-1.5-0.3c-0.3-0.1-0.6-0.3-0.8-0.4c-0.4-0.3-0.7-0.8-0.8-1.5c-0.1-0.7-0.1-1.6-0.1-2.7
		c0-0.5,0-1.1,0-1.6c0-0.6,0-1,0.1-1.2c0.1-0.8,0.3-1.4,0.7-1.8c0.4-0.4,0.9-0.7,1.7-0.8c0.1,0,0.3,0,0.6,0c0.3,0,0.7,0,1.2,0
		c0.5,0,1,0,1.6,0c0.5,0,1,0,1.5,0c0.1,0,0.2,0,0.3,0c5,0,5.5,0.2,5.6,2.3h5.8v0h0.1v-0.7c0-1.7-0.3-2.9-0.8-3.8
		c-0.5-0.9-1.3-1.5-2.5-1.9c-0.3-0.1-0.7-0.2-1.2-0.3c-0.5-0.1-1.1-0.1-1.8-0.2c-0.4,0-0.8,0-1.3-0.1c-0.5,0-1.2,0-1.8,0
		c-1,0-2.2,0-3.6,0c-1,0-2,0-2.8,0c-0.2,0-0.4,0-0.7,0c0,0-0.1,0-0.1,0c0,0,0,0,0,0c-3,0.1-4.4,0.5-5.7,1.3
		c-2.1,1.2-2.7,3.1-2.7,8.3c0,5.9,0.6,8,2.5,9.2c1.5,1,3.3,1.3,8.1,1.3c0.3,0,0.7,0,1,0c0.4,0,0.8,0,1.1,0c2.6,0,4.5,0,5.9-0.1
		c0.6,0,1.2-0.1,1.6-0.1c0.8-0.1,1.5-0.2,1.9-0.4c0.5-0.2,0.9-0.4,1.3-0.7c0.3-0.2,0.6-0.5,0.8-0.8c0.2-0.3,0.4-0.7,0.5-1.1
		c0.1-0.4,0.2-0.9,0.3-1.5c0.1-0.6,0.1-1.2,0.1-2v-0.9L193.7,22.3L193.7,22.3z M77.3,19.8c0,11-8.9,19.8-19.8,19.8
		c-8.8,0-16.2-5.7-18.8-13.6C36.1,34,28.6,39.7,19.8,39.7C8.9,39.7,0,30.8,0,19.8C0,8.9,8.9,0,19.8,0c8.8,0,16.2,5.7,18.8,13.6
		C41.3,5.7,48.7,0,57.5,0C68.5,0,77.3,8.9,77.3,19.8 M32.2,23.6c0-2.1-0.4-3.5-1.2-4.4c-0.9-1.1-2.1-1.4-5.1-1.5
		c-1.6-0.1-2.8-0.1-3.2-0.1h-5.6c-1.9,0-2.1-0.1-2.4-0.1c-0.9-0.2-1.3-0.7-1.3-1.6c0-1.1,0.5-1.5,2-1.6c0.9-0.1,3.6-0.1,5.4-0.1
		c4.1,0,4.6,0.2,4.6,2h5.9c0-3.4-0.7-4.8-2.6-5.5c-1.5-0.6-3.1-0.7-8.9-0.7c-3.8,0-5.5,0.1-7.4,0.3c-3.7,0.5-5,2.1-5,6
		c0,3.1,0.8,4.6,2.9,5.4c1,0.4,2.7,0.5,5.6,0.5h5.5c2.5,0,2.6,0,3,0.1c1.2,0.1,1.8,0.7,1.8,1.7c0,1.8-0.7,1.9-7.9,1.9
		c-1.5,0-3.2-0.1-3.8-0.2c-0.9-0.2-1.1-0.6-1.2-2.1H7.5c0,0.4,0,1,0,1.2c0,2.8,1,4.3,3.2,4.8c1.5,0.4,3.5,0.5,8,0.5
		c4.3,0,5.9-0.1,8.3-0.3C30.8,29.2,32.2,27.6,32.2,23.6 M72.5,29.8L61.6,9.9h-8.1L42.4,29.8h6.8l1.9-3.5h0v0h12.8l2,3.5H72.5z
		 M57.5,14.2L57.5,14.2L57.5,14.2l-4.2,7.9h8.5l0,0h0L57.5,14.2z M107,24.3c0,2.4-0.8,4-2.4,4.8c-0.3,0.2-0.8,0.3-1.2,0.4
		c-0.1,0-0.2,0-0.3,0.1c-0.1,0-0.1,0-0.2,0c0,0,0,0,0,0c-0.2,0-0.3,0-0.5,0.1c0,0,0,0-0.1,0c-0.2,0-0.4,0-0.6,0c0,0,0,0,0,0
		c-0.1,0-0.3,0-0.5,0c-0.1,0-0.2,0-0.3,0c0,0-0.1,0-0.1,0c-0.2,0-0.4,0-0.7,0H81.4h0V9.9h0v0h17.9c1.2,0,2.2,0.1,2.9,0.2
		c0,0,0,0,0,0c0.3,0.1,0.7,0.1,0.9,0.2c0,0,0,0,0.1,0c0.2,0.1,0.5,0.2,0.7,0.3c0,0,0.1,0,0.2,0.1c0.8,0.4,1.3,1,1.6,1.7
		c0.3,0.7,0.5,1.6,0.5,2.7c0,1.8-0.4,3-1.3,3.7c0,0-0.1,0.1-0.1,0.1c-0.1,0.1-0.1,0.1-0.2,0.1c-0.1,0.1-0.2,0.1-0.3,0.1
		c-0.1,0-0.1,0.1-0.2,0.1c-0.1,0-0.1,0.1-0.2,0.1c-0.4,0.1-0.9,0.2-1.6,0.4c0.9,0.1,1.6,0.2,2.1,0.3c0,0,0,0,0.1,0
		c0.2,0.1,0.4,0.1,0.6,0.2c0,0,0,0,0,0c0.2,0.1,0.3,0.2,0.4,0.3c0,0,0.1,0,0.1,0.1C106.5,21.3,107,22.6,107,24.3 M99.9,25.2
		C100,25.2,100,25.2,99.9,25.2c0.6-0.3,1-0.8,1-1.6c0-0.9-0.4-1.5-1.1-1.7c0,0,0,0-0.1,0c-0.1,0-0.3-0.1-0.5-0.1c-0.2,0-0.6,0-1.2,0
		H98H87.3v3.6h10.8c0.8,0,1.1,0,1.4-0.1c0.1,0,0.1,0,0.2,0C99.8,25.2,99.9,25.2,99.9,25.2 M87.3,14.3v3.5h10.1c0.6,0,1.1,0,1.3-0.1
		c0.3,0,0.5-0.1,0.6-0.2c0,0,0,0,0,0c0.5-0.3,0.7-0.8,0.7-1.5c0-0.8-0.4-1.4-1.1-1.7c0,0,0,0,0,0c-0.2,0-0.4-0.1-0.6-0.1
		c0,0-0.1,0-0.1,0c-0.2,0-0.6,0-1.1,0H87.3z M128.7,9.9l10.9,19.8H133h0l-2-3.5h-12.8l-1.9,3.5h-6.8h0l11.1-19.8h0l0,0H128.7z
		 M124.6,14.2l-4.2,7.9h8.5L124.6,14.2z M204.3,9.9L204.3,9.9l-0.1,19.8h0.1h6V9.9L204.3,9.9L204.3,9.9z M245.5,14.6
		c0.3,1.2,0.4,3,0.4,5.2c0,2.5-0.1,4.3-0.4,5.4c-0.2,1.1-0.7,2.1-1.5,2.8c-0.6,0.6-1.4,1.1-2.3,1.4c-0.9,0.2-2.4,0.3-4.4,0.3h-17.9
		V9.9h17.1c1.1,0,2,0,2.8,0.1c0.8,0.1,1.4,0.2,2,0.3c1.1,0.3,2,0.7,2.7,1.5C244.7,12.4,245.2,13.4,245.5,14.6 M239.9,19.8
		c0-2-0.3-3.4-0.8-4c-0.5-0.6-1.7-1-3.4-1h-10.2V25h10.1c1.2,0,2-0.1,2.5-0.2c0.7-0.2,1.2-0.7,1.5-1.3
		C239.7,22.7,239.9,21.5,239.9,19.8 M261.6,22.2l5.6-6.4h-6.6l-3,3.9l-2.8-3.9H248l5.7,6.6l-6.1,7.3h6.4l3.6-5l3.6,5h6.5L261.6,22.2
		z"/>
</g>
</svg>
